<svg width="24" height="24" viewBox="0 0 24 24" fill="none" xmlns="http://www.w3.org/2000/svg">
<path d="M21 11.2546V19.5046C21 20.3331 20.3284 21.0046 19.5 21.0046H5.25C4.42157 21.0046 3.75 20.3331 3.75 19.5046V11.2546M12 4.87964C12 3.42989 10.8247 2.25464 9.375 2.25464C7.92525 2.25464 6.75 3.42989 6.75 4.87964C6.75 6.32939 7.92525 7.50464 9.375 7.50464C10.1095 7.50464 12 7.50464 12 7.50464M12 4.87964C12 5.59488 12 7.50464 12 7.50464M12 4.87964C12 3.42989 13.1753 2.25464 14.625 2.25464C16.0747 2.25464 17.25 3.42989 17.25 4.87964C17.25 6.32939 16.0747 7.50464 14.625 7.50464C13.8905 7.50464 12 7.50464 12 7.50464M12 7.50464V21.0046M3.375 11.2546H21.375C21.9963 11.2546 22.5 10.751 22.5 10.1296V8.62964C22.5 8.00832 21.9963 7.50464 21.375 7.50464H3.375C2.75368 7.50464 2.25 8.00832 2.25 8.62964V10.1296C2.25 10.751 2.75368 11.2546 3.375 11.2546Z" stroke="#0F172A" stroke-width="1.5" stroke-linecap="round" stroke-linejoin="round"/>
</svg>
